{
  "accessors": [
    {
      "bufferView": 2,
      "componentType": 5126,
      "count": 42987,
      "max": [
        2.1717236042022705,
        0.0778050646185875,
        0.9746266007423401
      ],
      "min": [
        -0.9746266007423401,
        -0.0778050646185875,
        -0.9746266007423401
      ],
      "type": "VEC3"
    },
    {
      "bufferView": 2,
      "byteOffset": 515844,
      "componentType": 5126,
      "count": 42987,
      "max": [
        0.9996922612190247,
        1.0,
        0.9999993443489075
      ],
      "min": [
        -0.9999986290931702,
        -1.0,
        -0.9999994039535522
      ],
      "type": "VEC3"
    },
    {
      "bufferView": 1,
      "componentType": 5126,
      "count": 42987,
      "max": [
        0.0,
        0.0
      ],
      "min": [
        0.0,
        0.0
      ],
      "type": "VEC2"
    },
    {
      "bufferView": 0,
      "componentType": 5125,
      "count": 64512,
      "type": "SCALAR"
    },
    {
      "bufferView": 2,
      "byteOffset": 1031688,
      "componentType": 5126,
      "count": 53090,
      "max": [
        0.3599187731742859,
        0.15498459339141846,
        0.9012631177902222
      ],
      "min": [
        -0.8930015563964844,
        -0.15498459339141846,
        -0.9012631177902222
      ],
      "type": "VEC3"
    },
    {
      "bufferView": 2,
      "byteOffset": 1668768,
      "componentType": 5126,
      "count": 53090,
      "max": [
        0.9996882081031799,
        1.0,
        0.9999549984931946
      ],
      "min": [
        -0.9999966025352478,
        -1.0,
        -0.9999549388885498
      ],
      "type": "VEC3"
    },
    {
      "bufferView": 1,
      "byteOffset": 343896,
      "componentType": 5126,
      "count": 53090,
      "max": [
        0.0,
        0.0
      ],
      "min": [
        0.0,
        0.0
      ],
      "type": "VEC2"
    },
    {
      "bufferView": 0,
      "byteOffset": 258048,
      "componentType": 5125,
      "count": 79872,
      "type": "SCALAR"
    }
  ],
  "asset": {
    "extras": {
      "author": "extrin6 3D (https://sketchfab.com/extrin6_3D)",
      "license": "CC-BY-4.0 (http://creativecommons.org/licenses/by/4.0/)",
      "source": "https://sketchfab.com/3d-models/ping-pong-4e456cb9fac5455683454d7e1455e173",
      "title": "Ping Pong"
    },
    "generator": "Sketchfab-16.16.0",
    "version": "2.0"
  },
  "bufferViews": [
    {
      "buffer": 0,
      "byteLength": 577536,
      "name": "floatBufferViews",
      "target": 34963
    },
    {
      "buffer": 0,
      "byteLength": 768616,
      "byteOffset": 577536,
      "byteStride": 8,
      "name": "floatBufferViews",
      "target": 34962
    },
    {
      "buffer": 0,
      "byteLength": 2305848,
      "byteOffset": 1346152,
      "byteStride": 12,
      "name": "floatBufferViews",
      "target": 34962
    }
  ],
  "buffers": [
    {
      "byteLength": 3652000,
      "uri": "scene.bin"
    }
  ],
  "materials": [
    {
      "doubleSided": true,
      "name": "Material.001",
      "pbrMetallicRoughness": {
        "baseColorFactor": [
          0.8,
          0.712501,
          0.154955,
          1.0
        ],
        "metallicFactor": 0.0,
        "roughnessFactor": 0.5
      }
    },
    {
      "doubleSided": true,
      "name": "Material.002",
      "pbrMetallicRoughness": {
        "baseColorFactor": [
          0.0,
          0.00495119,
          0.8,
          1.0
        ],
        "metallicFactor": 0.0,
        "roughnessFactor": 0.5
      }
    }
  ],
  "meshes": [
    {
      "name": "Object_0",
      "primitives": [
        {
          "attributes": {
            "NORMAL": 1,
            "POSITION": 0,
            "TEXCOORD_0": 2
          },
          "indices": 3,
          "material": 0,
          "mode": 4
        }
      ]
    },
    {
      "name": "Object_1",
      "primitives": [
        {
          "attributes": {
            "NORMAL": 5,
            "POSITION": 4,
            "TEXCOORD_0": 6
          },
          "indices": 7,
          "material": 1,
          "mode": 4
        }
      ]
    }
  ],
  "nodes": [
    {
      "children": [
        1
      ],
      "matrix": [
        1.0,
        0.0,
        0.0,
        0.0,
        0.0,
        2.220446049250313e-16,
        -1.0,
        0.0,
        0.0,
        1.0,
        2.220446049250313e-16,
        0.0,
        0.0,
        0.0,
        0.0,
        1.0
      ],
      "name": "Sketchfab_model"
    },
    {
      "children": [
        2
      ],
      "name": "root"
    },
    {
      "children": [
        3,
        5
      ],
      "matrix": [
        1.0,
        0.0,
        0.0,
        0.0,
        0.0,
        2.220446049250313e-16,
        1.0,
        0.0,
        0.0,
        -1.0,
        2.220446049250313e-16,
        0.0,
        0.0,
        0.0,
        0.0,
        1.0
      ],
      "name": "GLTF_SceneRootNode"
    },
    {
      "children": [
        4
      ],
      "name": "Circle_0"
    },
    {
      "mesh": 0,
      "name": "Object_4"
    },
    {
      "children": [
        6
      ],
      "name": "Circle.001_1"
    },
    {
      "mesh": 1,
      "name": "Object_6"
    }
  ],
  "scene": 0,
  "scenes": [
    {
      "name": "Sketchfab_Scene",
      "nodes": [
        0
      ]
    }
  ]
}
